<?xml version="1.0" standalone="no"?>
<!DOCTYPE svg PUBLIC "-//W3C//DTD SVG 20010904//EN"
 "http://www.w3.org/TR/2001/REC-SVG-20010904/DTD/svg10.dtd">
<svg version="1.0" xmlns="http://www.w3.org/2000/svg"
 width="700.000000pt" height="700.000000pt" viewBox="0 0 700.000000 700.000000"
 preserveAspectRatio="xMidYMid meet">
<metadata>
Created by potrace 1.14, written by Peter Selinger 2001-2017
</metadata>
<g transform="translate(0.000000,700.000000) scale(0.100000,-0.100000)"
fill="#000000" stroke="none">
<path d="M2980 6232 c-142 -46 -171 -93 -166 -273 3 -99 1 -114 -18 -142 -12
-18 -20 -39 -18 -47 3 -16 118 -102 177 -133 38 -21 55 -16 55 15 0 16 4 19
23 14 65 -20 83 -18 98 11 7 15 20 32 26 36 7 4 13 17 13 27 0 15 7 20 28 20
28 0 29 1 24 46 -2 29 2 62 13 89 9 24 15 50 14 57 -4 29 3 36 40 41 49 6 79
32 92 81 15 55 7 70 -28 53 -32 -15 -53 -13 -97 14 -48 28 -155 78 -179 84
-43 9 -82 12 -97 7z"/>
<path d="M2678 5683 c-13 -16 -47 -52 -78 -82 l-55 -54 25 -16 c104 -68 196
-214 246 -391 2 -8 12 -39 21 -67 17 -52 18 -53 58 -54 73 -1 180 0 185 1 5 2
49 6 103 9 36 1 34 16 -5 32 -41 17 -71 44 -75 67 -1 11 20 58 47 105 45 79
49 91 43 132 -7 56 -63 170 -83 170 -8 0 -13 -7 -11 -15 14 -61 22 -232 12
-248 -9 -15 -16 1 -50 118 -20 67 -27 99 -30 136 -1 7 -10 22 -20 35 -19 23
-19 24 -40 5 -26 -24 -26 -34 -2 -60 12 -13 24 -47 30 -86 6 -36 13 -76 16
-90 15 -68 17 -108 6 -114 -6 -4 -11 0 -11 9 0 8 -4 23 -9 33 -6 9 -26 51 -47
92 -75 153 -216 360 -245 360 -5 0 -19 -12 -31 -27z"/>
<path d="M3520 5611 c0 -9 -5 -22 -11 -28 -12 -12 -12 -12 136 -74 38 -17 79
-36 91 -44 37 -24 106 -29 150 -10 21 9 59 23 84 31 25 8 51 17 59 20 9 3 7 9
-10 23 -20 16 -21 21 -10 35 12 14 11 16 -4 16 -21 0 -135 -50 -135 -59 0 -4
-14 -15 -30 -25 -32 -18 -37 -17 -79 22 -16 16 -141 75 -198 95 -39 13 -43 13
-43 -2z"/>
<path d="M5714 5584 c-47 -27 -120 -104 -146 -152 -17 -31 -19 -32 -75 -30
l-58 3 -1 -103 c-1 -99 0 -102 20 -96 59 19 120 33 128 28 4 -3 8 -1 8 3 0 11
71 10 88 -1 25 -15 -8 -35 -125 -73 l-115 -37 6 -111 c4 -60 9 -144 11 -185 3
-41 7 -100 10 -130 3 -30 8 -82 10 -114 6 -75 16 -87 58 -75 18 5 73 12 122
15 50 2 95 6 100 8 15 5 11 217 -5 247 -7 13 -34 43 -59 66 -47 44 -49 59 -3
23 l26 -21 12 24 c9 16 10 35 4 63 -17 73 -19 94 -10 94 5 0 11 -8 14 -18 11
-34 102 -121 148 -142 75 -33 153 -44 207 -29 39 10 96 38 81 39 -3 1 -31 2
-63 5 -85 5 -188 73 -213 140 -6 14 -2 15 32 9 94 -19 174 -1 226 51 38 38 35
47 -9 28 -34 -14 -59 -14 -124 -1 -35 8 -66 39 -96 94 -18 33 -38 68 -46 78
-13 18 -12 22 3 35 22 20 80 124 80 145 0 21 -31 13 -88 -21 -26 -16 -59 -35
-74 -42 -15 -8 -39 -32 -54 -55 -69 -107 -104 -110 -61 -6 6 14 11 27 12 30 1
3 5 13 9 22 4 9 9 22 10 30 2 7 5 20 8 28 14 36 48 147 48 153 0 11 -12 7 -56
-19z"/>
<path d="M4926 5589 c-97 -10 -213 -48 -284 -93 -51 -33 -53 -52 -3 -39 12 3
21 1 21 -4 0 -5 -20 -14 -44 -21 -125 -33 -269 -125 -354 -226 -27 -33 -62
-90 -62 -101 0 -27 39 -23 72 7 53 48 71 63 108 88 19 13 37 27 40 30 3 4 28
20 55 35 28 16 61 37 74 47 13 10 27 15 32 12 5 -3 9 -2 9 3 0 10 29 24 129
64 91 37 167 58 261 74 25 5 56 10 70 12 47 9 305 11 363 4 39 -5 56 -4 54 3
-2 6 -16 12 -30 14 -15 2 -27 7 -27 12 0 15 -182 70 -250 75 -131 11 -157 11
-234 4z"/>
<path d="M3416 5488 c-79 -125 -132 -214 -168 -279 l-37 -65 87 -30 c47 -16
92 -28 99 -26 8 2 10 -3 7 -13 -3 -8 -10 -15 -14 -15 -4 0 -30 -23 -59 -52
-42 -42 -51 -56 -47 -77 3 -14 8 -43 11 -65 9 -62 7 -61 115 -41 40 7 108 28
135 40 51 23 165 154 165 189 0 20 -17 20 -66 0 -78 -33 -89 -37 -104 -39 -8
-1 -31 -5 -50 -10 -31 -7 -33 -6 -21 9 7 9 39 23 69 32 63 19 87 39 127 109
16 28 51 80 77 118 26 37 48 70 48 74 0 3 7 14 15 23 15 16 10 20 -67 51 -46
18 -90 34 -98 36 -8 1 -16 7 -18 12 -2 6 -10 11 -17 11 -9 0 -147 64 -150 70
0 0 -18 -28 -39 -62z"/>
<path d="M2495 5493 c-11 -3 -33 -17 -49 -31 l-28 -27 6 -100 c3 -55 17 -143
30 -195 33 -127 123 -401 139 -421 12 -16 27 -19 95 -20 39 -1 201 10 242 16
19 3 53 8 75 10 22 3 56 7 75 10 19 3 49 8 65 10 17 2 42 8 56 13 l25 10 -18
89 c-10 48 -18 89 -18 91 0 1 -26 0 -57 -4 -32 -3 -96 -7 -143 -10 -149 -8
-163 -11 -216 -51 -42 -31 -47 -29 -29 13 8 20 15 40 15 45 0 14 -37 20 -66 9
-26 -10 -24 -6 18 35 28 28 45 52 43 63 -2 9 -11 49 -20 87 -9 39 -19 80 -21
92 -2 12 -9 34 -14 48 -5 14 -7 25 -5 25 9 0 -35 101 -56 130 -17 23 -107 74
-121 69 -2 -1 -12 -3 -23 -6z"/>
<path d="M4050 5468 c-14 -5 -34 -11 -44 -14 -63 -12 -118 -38 -134 -62 -9
-15 -19 -29 -22 -32 -3 -3 -31 -45 -64 -95 -32 -49 -68 -100 -79 -112 l-20
-23 26 0 c14 0 33 -10 44 -23 14 -18 25 -21 52 -17 33 5 52 25 78 80 7 15 44
71 53 80 22 22 148 220 143 223 -5 3 -19 0 -33 -5z"/>
<path d="M5217 5424 c-1 -1 -29 -5 -62 -9 -164 -18 -397 -90 -544 -168 -87
-45 -214 -126 -219 -139 -2 -4 -9 -8 -15 -8 -22 -1 -88 -75 -82 -90 13 -30
453 -290 492 -290 5 0 31 32 57 70 27 39 54 74 61 78 7 4 21 22 32 40 25 40
101 122 114 122 7 0 8 -25 3 -69 -7 -79 2 -164 18 -159 6 2 20 31 32 64 31 86
73 151 129 202 76 70 90 82 98 82 19 0 29 44 34 153 l6 115 -76 4 c-42 2 -77
2 -78 2z"/>
<path d="M5293 5022 c-134 -146 -184 -262 -147 -334 35 -68 188 -187 240 -188
16 0 22 20 18 55 -2 17 -6 64 -9 105 -2 41 -7 102 -9 135 -3 33 -8 107 -12
165 -6 105 -9 121 -22 119 -4 0 -30 -26 -59 -57z"/>
<path d="M4160 4956 c0 -25 -170 -249 -228 -300 -95 -84 -237 -157 -411 -212
-67 -21 -121 -42 -121 -46 0 -4 3 -8 8 -8 18 0 213 -187 264 -254 36 -46 37
-51 34 -120 -2 -50 -10 -86 -26 -121 -24 -51 -149 -266 -160 -275 -23 -20
-245 -438 -237 -446 2 -3 14 -7 26 -9 13 -2 30 -6 39 -9 54 -16 161 -29 257
-30 57 -1 70 2 69 14 -3 23 -11 61 -24 110 -21 76 -15 248 11 327 26 80 57
110 37 36 -6 -21 -7 -65 -3 -102 4 -36 9 -80 11 -98 1 -18 8 -41 14 -53 6 -11
9 -20 6 -20 -3 0 6 -29 19 -65 13 -36 22 -65 20 -65 -2 0 2 -17 9 -38 17 -48
36 -160 42 -247 6 -101 7 -342 1 -400 -3 -27 -1 -59 3 -71 27 -70 29 -386 4
-544 -4 -25 -8 -52 -8 -62 -1 -9 -4 -19 -7 -22 -3 -3 -3 -28 1 -54 5 -38 14
-56 42 -83 51 -50 78 -103 68 -137 -5 -20 -1 -40 16 -74 13 -26 24 -49 24 -50
0 -2 -87 -1 -192 2 -249 6 -549 4 -763 -5 -93 -4 -217 -9 -275 -10 -58 -1
-159 -6 -225 -10 -66 -4 -154 -9 -195 -10 -41 -2 -93 -6 -115 -9 -72 -10 -217
-24 -310 -31 -74 -5 -145 -12 -208 -21 -35 -5 -38 -3 -33 14 7 22 -35 123 -64
155 -14 15 -27 18 -50 14 -22 -5 -30 -3 -30 8 0 9 9 15 23 15 13 0 31 6 41 13
17 12 16 14 -8 32 -14 11 -26 25 -26 32 0 7 -4 13 -9 13 -16 0 -39 73 -40 128
-1 28 -2 58 -2 65 -1 15 10 97 16 117 2 8 7 31 10 50 11 65 26 125 42 175 10
28 18 52 18 55 6 35 46 125 84 188 51 83 72 111 158 202 96 102 124 135 169
195 24 33 48 65 53 71 19 23 40 72 34 78 -4 3 -2 6 4 6 6 0 30 33 54 73 23 39
64 104 91 144 26 40 48 76 48 82 0 5 4 11 9 13 15 5 86 157 132 282 43 118 44
119 51 80 3 -21 9 -73 13 -114 l7 -76 67 -17 c78 -21 151 -49 151 -59 0 -10
-53 -3 -112 15 -36 11 -48 12 -48 3 0 -13 109 -70 118 -62 3 3 10 -1 16 -9 13
-18 96 -32 96 -16 0 15 59 133 118 235 29 49 52 90 52 92 0 1 20 37 45 78 25
42 45 79 45 81 0 3 18 34 40 70 22 36 40 69 40 73 0 4 -24 20 -53 36 -68 37
-157 98 -190 128 -24 22 -33 24 -129 23 -112 -1 -192 15 -220 46 -11 10 -18
34 -18 55 l0 36 -57 -5 c-117 -12 -398 -119 -463 -177 -49 -44 -87 -70 -101
-70 -27 -1 -154 -192 -172 -259 -3 -12 -6 -24 -7 -26 0 -3 -7 -23 -15 -45 -20
-57 -27 -152 -26 -345 1 -366 -55 -524 -239 -666 l-34 -26 -2 -129 c-2 -137
-10 -246 -23 -306 -5 -20 -7 -39 -4 -41 2 -3 0 -22 -6 -43 -5 -22 -12 -57 -15
-79 -3 -22 -17 -85 -31 -140 -54 -203 -53 -178 -9 -240 67 -94 74 -113 68
-174 l-6 -56 61 -62 c67 -69 70 -63 -34 -78 -22 -3 -47 -8 -56 -10 -9 -3 -33
-7 -55 -9 -21 -3 -50 -7 -64 -10 -14 -4 -38 -9 -55 -11 -16 -3 -64 -13 -105
-22 -41 -8 -82 -16 -90 -18 -8 -1 -33 -7 -55 -13 -22 -6 -53 -14 -70 -17 -57
-10 -118 -32 -104 -37 8 -3 52 -1 99 4 47 5 103 11 125 13 22 2 40 4 40 4 0 2
42 5 170 16 28 2 75 6 105 9 30 3 84 8 120 10 36 3 88 8 115 10 28 3 79 8 115
11 36 3 88 8 115 11 28 3 73 7 100 10 28 3 75 7 105 9 31 2 91 6 135 10 44 3
121 8 170 10 50 3 133 7 185 10 262 15 521 19 1110 19 595 0 745 -3 965 -19
44 -3 112 -8 150 -10 39 -2 105 -7 148 -10 43 -3 119 -8 170 -10 51 -3 117 -7
147 -9 168 -14 204 -17 233 -21 42 -6 138 -15 212 -21 33 -2 87 -7 120 -9 33
-3 83 -7 110 -9 28 -2 79 -7 115 -11 66 -7 77 -8 211 -20 52 -5 78 -4 83 3 4
7 -4 14 -21 18 -37 8 -170 40 -208 50 -16 4 -33 7 -36 6 -4 -1 -22 3 -40 9
-19 5 -50 12 -69 15 -19 3 -38 8 -41 9 -3 2 -28 7 -55 11 -27 3 -52 8 -55 10
-4 2 -24 6 -45 9 -22 3 -49 8 -62 11 -13 2 -51 7 -85 10 -33 3 -64 7 -68 9 -3
3 -37 7 -75 10 -37 3 -71 8 -74 10 -4 2 -34 7 -66 10 -32 4 -72 8 -89 10 -16
2 -68 7 -115 10 -96 7 -121 9 -203 20 -32 4 -80 9 -105 10 -26 1 -92 6 -147
10 -55 4 -140 9 -190 10 -49 2 -93 3 -96 4 -4 1 -19 24 -34 53 -15 29 -38 69
-51 89 -22 36 -25 37 -61 29 -48 -11 -65 3 -27 24 57 30 57 29 6 83 -63 66
-82 130 -81 269 0 97 5 194 9 204 1 3 2 8 1 13 -5 29 26 165 51 227 30 73 32
92 25 208 -2 39 11 151 23 191 5 19 7 38 4 42 -3 5 -2 9 3 9 4 0 9 10 9 23 2
28 11 81 18 104 3 10 8 32 11 48 22 125 36 206 41 243 2 23 18 62 35 87 78
115 100 316 49 440 -66 163 -144 298 -212 367 -40 41 -31 44 19 5 23 -18 61
-45 84 -62 116 -84 223 -250 246 -385 8 -45 8 -144 0 -196 -9 -60 -50 -171
-84 -229 -45 -77 -55 -112 -37 -130 9 -8 19 -15 23 -15 5 0 26 -8 47 -17 22
-9 41 -17 44 -18 3 -1 19 -7 35 -14 27 -11 110 -40 395 -136 167 -56 259 -110
348 -203 77 -80 183 -274 207 -381 12 -47 25 -75 55 -109 49 -55 53 -98 14
-149 -52 -69 -38 -131 54 -229 35 -38 107 -84 131 -84 5 0 13 37 17 82 7 77 8
97 5 131 0 7 -17 21 -36 30 -46 22 -39 48 11 40 39 -6 38 -12 14 91 -6 27 -11
79 -11 115 -1 57 -5 71 -32 111 -18 25 -35 47 -38 50 -6 5 -123 220 -125 230
0 3 -19 44 -42 92 -23 48 -42 90 -42 92 0 3 -5 17 -12 33 -6 15 -12 31 -12 35
-1 3 -4 10 -8 14 -5 4 -8 14 -8 21 0 33 -49 77 -130 117 -89 44 -132 68 -140
76 -3 3 -34 25 -70 49 -124 85 -184 138 -252 223 -36 44 -50 92 -28 100 19 6
48 198 45 293 -2 50 -6 99 -8 110 -3 11 -6 24 -6 29 -1 5 -8 3 -16 -4 -8 -6
-14 -15 -13 -18 4 -14 -15 -61 -63 -157 -87 -175 -115 -191 -81 -48 12 48 24
105 27 127 3 21 7 41 10 45 2 4 6 18 8 32 3 13 13 62 22 109 9 47 18 94 20
105 2 11 8 35 14 54 6 19 8 38 5 42 -3 5 0 9 6 9 6 0 9 4 6 8 -11 19 73 282
90 282 7 0 30 -9 51 -20 21 -10 49 -21 63 -24 51 -11 116 -29 135 -38 38 -16
268 -88 284 -88 20 0 44 -73 41 -127 -3 -81 -1 -103 17 -130 49 -78 91 -94
117 -45 l15 27 7 -32 c12 -59 51 -76 119 -54 49 17 89 44 133 89 36 37 38 48
18 86 -9 17 -13 60 -12 131 l2 106 -91 -5 c-131 -8 -143 -10 -170 -40 -34 -37
-67 -34 -99 9 -32 41 -84 70 -146 80 -25 4 -54 12 -64 17 -22 12 -141 48 -172
53 -12 2 -30 7 -40 13 -11 5 -55 15 -99 22 -44 7 -87 16 -96 21 -9 4 -27 10
-40 13 -77 14 -422 208 -488 274 -16 15 -88 62 -96 62 -3 0 -5 -6 -5 -14z
m1532 -700 c-5 -25 -42 -84 -43 -68 -3 28 -2 38 9 65 13 30 39 32 34 3z"/>
<path d="M4952 4838 c-7 -7 -12 -18 -12 -25 0 -8 -6 -24 -13 -36 -8 -12 -15
-39 -16 -60 -2 -35 -1 -38 16 -28 10 5 33 23 52 39 l34 30 -18 46 c-19 49 -24
53 -43 34z"/>
<path d="M3276 4695 c-22 -8 -43 -12 -48 -9 -4 3 -8 0 -8 -7 0 -7 -3 -10 -6
-7 -3 4 -19 2 -36 -3 -17 -5 -49 -11 -72 -15 -22 -3 -43 -7 -47 -10 -4 -2 -28
-6 -55 -9 -27 -3 -60 -8 -74 -11 -34 -6 -199 -16 -277 -15 l-63 0 0 -184 c0
-188 1 -195 40 -203 25 -5 92 -3 142 3 43 6 51 3 115 -40 37 -25 73 -49 78
-53 22 -17 203 -127 242 -146 l42 -22 -49 -76 c-27 -42 -70 -114 -95 -160 -73
-129 -126 -219 -162 -270 -37 -54 -39 -61 -18 -78 22 -19 19 -31 -24 -79 -57
-64 -111 -180 -83 -181 4 0 27 -18 50 -40 46 -43 87 -59 104 -42 6 6 32 -12
76 -57 85 -83 151 -112 294 -128 115 -12 111 10 -26 149 -107 109 -206 231
-206 255 0 8 4 11 10 8 5 -3 27 -8 49 -11 36 -4 40 -2 57 33 10 21 19 40 19
43 3 24 150 301 185 350 11 16 20 33 20 38 0 6 3 12 8 14 15 7 124 199 136
240 20 73 12 94 -72 177 -89 88 -191 181 -198 181 -2 0 -18 16 -35 35 -40 45
-58 50 -127 29 -77 -23 -82 -24 -82 -10 0 13 85 96 99 96 5 0 11 6 13 13 3 8
35 13 101 15 53 2 97 7 97 12 0 4 -18 45 -39 91 -22 46 -37 87 -35 91 6 10 7
10 -40 -7z"/>
<path d="M1360 4381 c-125 -28 -207 -75 -303 -175 -52 -54 -104 -132 -95 -141
2 -2 23 12 48 31 66 50 155 99 237 128 87 30 168 43 177 27 4 -6 2 -11 -4 -11
-17 0 -184 -82 -192 -94 -4 -6 -8 -8 -8 -4 0 12 -48 -30 -136 -117 -96 -96
-170 -228 -190 -339 -2 -14 -8 -36 -13 -48 -12 -32 -15 -186 -3 -173 5 6 28
46 52 90 42 80 75 129 117 175 23 25 31 14 13 -18 -8 -14 -27 -57 -35 -82 -1
-3 -5 -14 -10 -25 -4 -11 -28 -72 -53 -135 -66 -167 -133 -281 -214 -360 -22
-23 -39 -43 -36 -45 2 -3 35 7 73 20 85 31 156 82 185 135 5 8 11 12 15 8 4
-3 -12 -41 -34 -85 -61 -118 -161 -229 -283 -312 -27 -17 -48 -35 -48 -38 0
-9 153 5 190 18 19 7 49 20 66 30 68 37 79 44 84 49 3 3 24 20 48 39 23 18 72
75 108 127 36 52 68 94 70 94 3 0 3 -17 -1 -37 -3 -21 -8 -56 -11 -77 -2 -21
-7 -43 -10 -48 -3 -5 -8 -24 -11 -41 -3 -18 -10 -38 -15 -44 -6 -7 -7 -13 -4
-13 4 0 -13 -38 -38 -85 -25 -47 -41 -85 -37 -85 18 0 89 55 138 107 49 51
113 134 113 148 0 3 12 23 26 44 14 22 26 45 28 53 1 7 5 18 9 25 8 13 37 90
42 113 2 8 10 42 19 75 8 33 18 78 21 100 3 22 10 54 15 70 4 17 8 37 8 45 1
8 5 33 11 55 5 22 13 56 16 75 3 19 8 42 10 50 2 8 6 26 9 40 8 49 67 198 95
242 30 48 89 99 161 141 25 14 59 37 75 51 17 15 45 37 63 50 l33 24 -43 35
c-38 31 -84 57 -170 97 -14 7 -31 10 -36 6 -6 -3 -13 -2 -16 3 -17 26 -226 34
-326 12z"/>
<path d="M2380 3208 c-24 -48 -48 -88 -51 -88 -4 0 -10 -13 -14 -29 -4 -21 0
-38 20 -67 37 -54 64 -115 71 -161 3 -21 8 -42 11 -46 17 -27 13 -191 -6 -290
-25 -130 -23 -137 68 -203 184 -133 420 -360 441 -425 8 -22 25 -48 38 -57 62
-42 83 -70 77 -103 -3 -18 -8 -37 -12 -42 -15 -25 -11 -75 10 -98 26 -30 87
-68 119 -75 123 -26 126 -25 114 39 -3 17 -8 50 -12 72 -7 47 -19 65 -45 65
-11 0 -19 7 -19 15 0 9 9 15 23 15 34 0 39 9 19 39 -32 47 -58 116 -66 171 -4
28 -18 47 -73 95 -115 101 -270 267 -307 328 -30 51 -34 67 -34 124 1 80 12
119 76 254 48 104 88 208 81 213 -2 1 -27 17 -56 34 -28 17 -60 38 -70 46 -10
8 -32 26 -50 41 l-32 26 14 47 c8 26 15 48 15 48 0 1 -53 19 -117 39 -65 21
-127 42 -138 48 -40 21 -49 14 -95 -75z"/>
<path d="M3335 1122 c-1 -2 -97 -5 -211 -7 -115 -2 -258 -7 -319 -10 -60 -4
-150 -9 -200 -11 -49 -3 -110 -7 -135 -8 -25 -2 -94 -7 -155 -12 -141 -10
-101 -20 110 -28 331 -12 516 -18 640 -21 190 -5 889 -5 965 -1 36 2 160 7
275 11 116 4 239 9 275 11 36 1 109 3 162 4 101 2 127 14 41 19 -26 1 -64 5
-83 7 -74 10 -119 13 -225 18 -60 3 -162 8 -226 12 -194 11 -906 24 -914 16z"/>
</g>
</svg>
