<svg width="19" height="12" viewBox="0 0 19 12" fill="none" xmlns="http://www.w3.org/2000/svg">
<path d="M18.0438 1.375V6.375C18.0438 6.54076 17.9787 6.69973 17.8628 6.81694C17.7468 6.93415 17.5896 7 17.4257 7C17.2618 7 17.1046 6.93415 16.9887 6.81694C16.8728 6.69973 16.8076 6.54076 16.8076 6.375V2.88359L10.4461 9.31719C10.3887 9.3753 10.3205 9.4214 10.2455 9.45285C10.1704 9.4843 10.09 9.50049 10.0088 9.50049C9.92757 9.50049 9.84714 9.4843 9.77211 9.45285C9.69708 9.4214 9.62891 9.3753 9.57151 9.31719L6.91841 6.63359L1.79301 11.8172C1.67704 11.9345 1.51974 12.0003 1.35572 12.0003C1.19171 12.0003 1.03441 11.9345 0.918436 11.8172C0.80246 11.6999 0.737305 11.5409 0.737305 11.375C0.737305 11.2091 0.80246 11.0501 0.918436 10.9328L6.48112 5.30781C6.53853 5.2497 6.60669 5.2036 6.68173 5.17215C6.75676 5.1407 6.83719 5.12451 6.91841 5.12451C6.99964 5.12451 7.08007 5.1407 7.1551 5.17215C7.23013 5.2036 7.2983 5.2497 7.3557 5.30781L10.0088 7.99141L15.9338 2H12.4811C12.3172 2 12.16 1.93415 12.0441 1.81694C11.9281 1.69973 11.863 1.54076 11.863 1.375C11.863 1.20924 11.9281 1.05027 12.0441 0.933058C12.16 0.815848 12.3172 0.75 12.4811 0.75H17.4257C17.5896 0.75 17.7468 0.815848 17.8628 0.933058C17.9787 1.05027 18.0438 1.20924 18.0438 1.375Z" fill="black"/>
</svg>
